<svg width="720" height="520" viewBox="0 0 720 520" fill="none" xmlns="http://www.w3.org/2000/svg">
  <rect width="720" height="520" rx="32" fill="#E7F3EA"/>
  <path d="M0 364C96 315 175 320 265 357C372 401 468 406 720 297V520H0V364Z" fill="#155E34"/>
  <path d="M0 414C125 366 234 384 334 419C452 460 561 452 720 389V520H0V414Z" fill="#F97316"/>
  <circle cx="538" cy="137" r="78" fill="#F59E0B" opacity=".18"/>
  <path d="M189 284C231 188 306 131 409 114C350 178 323 244 328 312C282 312 234 302 189 284Z" fill="#166534"/>
  <path d="M303 302C358 202 437 159 542 169C474 215 429 276 407 352C370 344 335 327 303 302Z" fill="#1F8A4C"/>
  <path d="M163 333C267 286 372 275 514 305" stroke="#7A3E18" stroke-width="24" stroke-linecap="round"/>
  <path d="M192 319C263 303 347 303 464 327" stroke="#F8FAFC" stroke-width="8" stroke-linecap="round" opacity=".85"/>
  <rect x="68" y="66" width="190" height="58" rx="16" fill="white" opacity=".92"/>
  <text x="92" y="102" fill="#172033" font-family="Arial, Helvetica, sans-serif" font-size="20" font-weight="700">Caucho natural</text>
</svg>
